<!DOCTYPE svg PUBLIC "-//W3C//DTD SVG 1.1//EN" "http://www.w3.org/Graphics/SVG/1.1/DTD/svg11.dtd">
<!-- Uploaded to: SVG Repo, www.svgrepo.com, Transformed by: SVG Repo Mixer Tools -->
<svg width="91px" height="91px" viewBox="-4.8 -4.8 57.60 57.60" id="b" xmlns="http://www.w3.org/2000/svg" fill="#f7f7f8" stroke="#f7f7f8" transform="rotate(0)" stroke-width="0.576">
<g id="SVGRepo_bgCarrier" stroke-width="0">
<path transform="translate(-4.8, -4.8), scale(3.5999999999999996)" fill="#6d70df" d="M9.166.33a2.25 2.25 0 00-2.332 0l-5.25 3.182A2.25 2.25 0 00.5 5.436v5.128a2.25 2.25 0 001.084 1.924l5.25 3.182a2.25 2.25 0 002.332 0l5.25-3.182a2.25 2.25 0 001.084-1.924V5.436a2.25 2.25 0 00-1.084-1.924L9.166.33z" strokewidth="0"/>
</g>
<g id="SVGRepo_tracerCarrier" stroke-linecap="round" stroke-linejoin="round"/>
<g id="SVGRepo_iconCarrier">
<defs>
<style>.c{fill:none;stroke:#ffffff;stroke-linecap:round;stroke-linejoin:round;}</style>
</defs>
<path class="c" d="m33.363,41.0276l-6.8415-19.5491,13.9784-13.9784-7.137,33.5276Zm-1.3742,3.4724l-8.2304-20.2584-6.014,6.014,14.2444,14.2444Z"/>
<polyline class="c" points="6.9724 14.637 40.5 7.5 26.5216 21.4784 6.9724 14.637"/>
<polyline class="c" points="3.5 16.0112 17.7444 30.2556 23.7584 24.2416 3.5 16.0112"/>
</g>
</svg>